<?xml version="1.0" encoding="UTF-8"?>
<svg width="26px" height="26px" viewBox="0 0 26 26" version="1.1" xmlns="http://www.w3.org/2000/svg" xmlns:xlink="http://www.w3.org/1999/xlink">
    <!-- Generator: Sketch 48.1 (47250) - http://www.bohemiancoding.com/sketch -->
    <title>icons8-ok</title>
    <desc>Created with Sketch.</desc>
    <defs></defs>
    <g id="Reports-Roles" stroke="none" stroke-width="1" fill="none" fill-rule="evenodd" transform="translate(-773.000000, -257.000000)">
        <g id="icons8-ok" transform="translate(773.000000, 257.000000)" fill="#2196F2" fill-rule="nonzero">
            <path d="M13,0 C5.83283955,0 0,5.83283955 0,13 C0,20.1671604 5.83283955,26 13,26 C20.1671604,26 26,20.1671604 26,13 C26,5.83283955 20.1671604,0 13,0 Z M13,0.896551724 C19.6733568,0.896551724 25.1034483,6.32664321 25.1034483,13 C25.1034483,19.6733568 19.6733568,25.1034483 13,25.1034483 C6.32664321,25.1034483 0.896551724,19.6733568 0.896551724,13 C0.896551724,6.32664321 6.32664321,0.896551724 13,0.896551724 Z M12.8038793,2.69315755 C10.1632543,2.74744062 7.6031791,3.81384721 5.70851293,5.70851293 C1.68978976,9.72898707 1.68978976,16.269262 5.70851293,20.2897361 C5.79606703,20.3772898 5.91163793,20.421067 6.02545786,20.421067 C6.14102921,20.421067 6.2566001,20.3772898 6.34415421,20.2897361 C6.51926197,20.1146283 6.51926197,19.8309536 6.34415421,19.6558458 C2.67214462,15.9855872 2.67389559,10.0144128 6.34415421,6.34415421 C8.47171359,4.21484386 11.5203396,3.2272361 14.4971714,3.70528017 C14.7405713,3.74555507 14.9699622,3.57745162 15.0102371,3.33405172 C15.050512,3.08890086 14.8824085,2.85775862 14.6390086,2.81923514 C14.0261317,2.72117479 13.4132543,2.6808999 12.8038793,2.69315755 Z M16.433863,3.31128783 C16.2587553,3.31829214 16.0976561,3.42861014 16.0328664,3.60196648 C15.9453127,3.83486014 16.0626346,4.09226821 16.2955282,4.17982231 C16.6142241,4.29889559 16.9294181,4.43547941 17.2376078,4.58957424 C17.3023975,4.62284483 17.3706897,4.63860441 17.4389818,4.63860441 C17.6018319,4.63860441 17.7594291,4.54929979 17.8399784,4.39170259 C17.9502964,4.172818 17.8609914,3.90140086 17.6403558,3.7893319 C17.3058999,3.62122845 16.9574353,3.46888459 16.6089708,3.3375541 C16.5511853,3.31654117 16.4916489,3.30953686 16.433863,3.31128783 Z M19.0219559,4.78569493 C18.908136,4.79970355 18.799569,4.85748945 18.7225216,4.95379838 C18.5701777,5.14991907 18.6034483,5.43009148 18.799569,5.58243534 C19.0990033,5.81707997 19.387931,6.07448803 19.6558458,6.34415421 C23.3278558,10.0144128 23.3278558,15.9855872 19.6558458,19.6558458 C19.480738,19.832705 19.480738,20.1146283 19.6558458,20.2914871 C19.7433999,20.3772898 19.8589708,20.422818 19.9745421,20.422818 C20.0883621,20.422818 20.2039334,20.3772898 20.2914871,20.2914871 C24.3102102,16.2710129 24.3102102,9.72898707 20.2914871,5.70851293 C19.9955551,5.4143319 19.6803611,5.13415948 19.3529095,4.87675097 C19.2548491,4.80145497 19.1340249,4.77168631 19.0219559,4.78569493 Z M18.3793103,8.96551724 C18.2654904,8.96551724 18.1499191,9.00929407 18.0623654,9.09684817 L11.6551724,15.5040412 L8.38591045,12.2347792 C8.21080269,12.0596714 7.92712834,12.0596714 7.75202059,12.2347792 C7.57691283,12.409887 7.57691283,12.6935613 7.75202059,12.8686691 L11.3382275,16.454876 C11.4257811,16.5424301 11.5396015,16.5862069 11.6551724,16.5862069 C11.7707438,16.5862069 11.8845637,16.5424301 11.9721173,16.454876 L18.6962553,9.73073803 C18.871363,9.55563028 18.871363,9.27195593 18.6962553,9.09684817 C18.6087016,9.00929407 18.4931303,8.96551724 18.3793103,8.96551724 Z M8.68534483,20.3492725 C8.51023707,20.3282596 8.33337834,20.4088094 8.24232231,20.5699085 L7.79404645,21.345636 C7.66971983,21.5610182 7.74326531,21.8341863 7.95689655,21.9585129 C8.02693966,21.9987878 8.10398707,22.0180498 8.18103448,22.0180498 C8.33512931,22.0180498 8.48572221,21.9375 8.56802252,21.7939119 L9.01629838,21.0181844 C9.140625,20.8045527 9.06883093,20.5296336 8.85344828,20.405307 C8.79916476,20.3755388 8.74137931,20.3562768 8.68534483,20.3492725 Z M17.3146552,20.3492725 C17.2568697,20.3562768 17.1990843,20.3755388 17.1465517,20.405307 C16.9311691,20.5296336 16.859375,20.8045527 16.9837016,21.0199353 L17.4319775,21.7956628 C17.5142782,21.939251 17.6648707,22.0198008 17.8189655,22.0198008 C17.8960129,22.0198008 17.9730603,21.9987878 18.0431034,21.9585129 C18.2584861,21.8341863 18.3302802,21.5610182 18.2059536,21.347387 L17.7576777,20.5716595 C17.6648707,20.4105603 17.488012,20.3282596 17.3146552,20.3492725 Z M10.6763199,21.2230603 C10.5029636,21.2475757 10.3523707,21.3719018 10.3033405,21.5522629 L10.0721983,22.4190464 C10.0074085,22.657193 10.1509967,22.9023439 10.3891432,22.9671336 C10.4276671,22.9776403 10.4661906,22.9811422 10.5064655,22.9811422 C10.7025862,22.9811422 10.8846983,22.8498113 10.9389818,22.6501887 L11.171875,21.7834052 C11.2349138,21.5452586 11.0930766,21.2983568 10.8549301,21.235318 C10.7953932,21.217807 10.7341058,21.216056 10.6763199,21.2230603 Z M15.325431,21.2230603 C15.2676456,21.216056 15.2063578,21.217807 15.1450699,21.235318 C14.9069234,21.2983568 14.7650862,21.5452586 14.828125,21.7834052 L15.0610182,22.6501887 C15.1153017,22.8498113 15.2956628,22.9811422 15.4935345,22.9811422 C15.5338094,22.9811422 15.5723329,22.9776403 15.6108568,22.9671336 C15.8490033,22.9023439 15.9925915,22.657193 15.9278017,22.4190464 L15.6966595,21.5522629 C15.6476293,21.3719018 15.4970369,21.2475757 15.325431,21.2230603 Z M13,21.5172414 C12.7513472,21.5172414 12.5517241,21.7168644 12.5517241,21.9655172 L12.5517241,22.862069 C12.5517241,23.1107222 12.7513472,23.3103448 13,23.3103448 C13.2486532,23.3103448 13.4482759,23.1107222 13.4482759,22.862069 L13.4482759,21.9655172 C13.4482759,21.7168644 13.2486532,21.5172414 13,21.5172414 Z" id="Shape"></path>
        </g>
    </g>
</svg>